ffmpeg started on 2019-09-19 at 08:43:10
Report written to "encoder.log"
Command line:
"Z:\\ahk\\AudioInserter\\bin\\ffmpeg2018.exe" -i "\\\\jungbi2\\wait_encoding\\sbsonair_VTR1_20190902_125831.mxf" -pix_fmt yuv420p -c:v libx264 -preset:v veryfast -g 30 -crf 24 -filter_complex "[0:v]field=type=top[vf];[vf]scale=960:540[vs];[vs]setdar=1.7778;[0:a]amerge=inputs=4[am];[am]aresample=async=10000[are];[are]pan=stereo|c0=c0+c2|c1=c1+c3" -c:a aac -b:a 128k -ac 2 -strict -2 -y -hide_banner "Z:\\sbsonair_VTR1_20190902_125831_\xc0\xfa\xc7\xd8\xbb\xf3\xb5\xb5.mp4"
Guessed Channel Layout for Input Stream #0.1 : mono
Guessed Channel Layout for Input Stream #0.2 : mono
Guessed Channel Layout for Input Stream #0.3 : mono
Guessed Channel Layout for Input Stream #0.4 : mono
Guessed Channel Layout for Input Stream #0.5 : mono
Guessed Channel Layout for Input Stream #0.6 : mono
Guessed Channel Layout for Input Stream #0.7 : mono
Guessed Channel Layout for Input Stream #0.8 : mono
Input #0, mxf, from '\\jungbi2\wait_encoding\sbsonair_VTR1_20190902_125831.mxf':
  Metadata:
    uid             : adab4424-2f25-4dc7-92ff-29bd000c0000
    generation_uid  : adab4424-2f25-4dc7-92ff-29bd000c0001
    company_name    : FFmpeg
    product_name    : OP1a Muxer
    product_version : 58.22.100
    product_uid     : adab4424-2f25-4dc7-92ff-29bd000c0002
    material_package_umid: 0x060A2B340101010501010D00136307A652947134906307A60052947134906300
    timecode        : 12:58:31;06
  Duration: 00:01:01.69, start: 0.000000, bitrate: 59948 kb/s
    Stream #0:0: Video: mpeg2video (4:2:2), yuv422p(tv, bt709, top first), 1920x1080 [SAR 1:1 DAR 16:9], 50000 kb/s, 29.97 fps, 29.97 tbr, 29.97 tbn, 59.94 tbc
    Metadata:
      file_package_umid: 0x060A2B340101010501010D00136307A652947134906307A60052947134906301
    Stream #0:1: Audio: pcm_s24le, 48000 Hz, mono, s32 (24 bit), 1152 kb/s
    Metadata:
      file_package_umid: 0x060A2B340101010501010D00136307A652947134906307A60052947134906301
    Stream #0:2: Audio: pcm_s24le, 48000 Hz, mono, s32 (24 bit), 1152 kb/s
    Metadata:
      file_package_umid: 0x060A2B340101010501010D00136307A652947134906307A60052947134906301
    Stream #0:3: Audio: pcm_s24le, 48000 Hz, mono, s32 (24 bit), 1152 kb/s
    Metadata:
      file_package_umid: 0x060A2B340101010501010D00136307A652947134906307A60052947134906301
    Stream #0:4: Audio: pcm_s24le, 48000 Hz, mono, s32 (24 bit), 1152 kb/s
    Metadata:
      file_package_umid: 0x060A2B340101010501010D00136307A652947134906307A60052947134906301
    Stream #0:5: Audio: pcm_s24le, 48000 Hz, mono, s32 (24 bit), 1152 kb/s
    Metadata:
      file_package_umid: 0x060A2B340101010501010D00136307A652947134906307A60052947134906301
    Stream #0:6: Audio: pcm_s24le, 48000 Hz, mono, s32 (24 bit), 1152 kb/s
    Metadata:
      file_package_umid: 0x060A2B340101010501010D00136307A652947134906307A60052947134906301
    Stream #0:7: Audio: pcm_s24le, 48000 Hz, mono, s32 (24 bit), 1152 kb/s
    Metadata:
      file_package_umid: 0x060A2B340101010501010D00136307A652947134906307A60052947134906301
    Stream #0:8: Audio: pcm_s24le, 48000 Hz, mono, s32 (24 bit), 1152 kb/s
    Metadata:
      file_package_umid: 0x060A2B340101010501010D00136307A652947134906307A60052947134906301
Stream mapping:
  Stream #0:0 (mpeg2video) -> field
  Stream #0:1 (pcm_s24le) -> amerge:in0
  Stream #0:2 (pcm_s24le) -> amerge:in1
  Stream #0:3 (pcm_s24le) -> amerge:in2
  Stream #0:4 (pcm_s24le) -> amerge:in3
  setdar -> Stream #0:0 (libx264)
  pan -> Stream #0:1 (aac)
Press [q] to stop, [?] for help
[Parsed_amerge_3 @ 0000000002b26880] No channel layout for input 1
[Parsed_amerge_3 @ 0000000002b26880] Input channel layouts overlap: output layout will be determined by the number of distinct input channels
[libx264 @ 0000000000489f00] using SAR=1/1
[libx264 @ 0000000000489f00] using cpu capabilities: MMX2 SSE2Fast SSSE3 SSE4.2 AVX FMA3 BMI2 AVX2
[libx264 @ 0000000000489f00] profile High, level 3.1, 4:2:0, 8-bit
[libx264 @ 0000000000489f00] 264 - core 157 r2935 545de2f - H.264/MPEG-4 AVC codec - Copyleft 2003-2018 - http://www.videolan.org/x264.html - options: cabac=1 ref=1 deblock=1:0:0 analyse=0x3:0x113 me=hex subme=2 psy=1 psy_rd=1.00:0.00 mixed_ref=0 me_range=16 chroma_me=1 trellis=0 8x8dct=1 cqm=0 deadzone=21,11 fast_pskip=1 chroma_qp_offset=0 threads=6 lookahead_threads=2 sliced_threads=0 nr=0 decimate=1 interlaced=0 bluray_compat=0 constrained_intra=0 bframes=3 b_pyramid=2 b_adapt=1 b_bias=0 direct=1 weightb=1 open_gop=0 weightp=1 keyint=30 keyint_min=3 scenecut=40 intra_refresh=0 rc_lookahead=10 rc=crf mbtree=1 crf=24.0 qcomp=0.60 qpmin=0 qpmax=69 qpstep=4 ip_ratio=1.40 aq=1:1.00
Output #0, mp4, to 'Z:\sbsonair_VTR1_20190902_125831_저해상도.mp4':
  Metadata:
    uid             : adab4424-2f25-4dc7-92ff-29bd000c0000
    generation_uid  : adab4424-2f25-4dc7-92ff-29bd000c0001
    company_name    : FFmpeg
    product_name    : OP1a Muxer
    product_version : 58.22.100
    product_uid     : adab4424-2f25-4dc7-92ff-29bd000c0002
    material_package_umid: 0x060A2B340101010501010D00136307A652947134906307A60052947134906300
    timecode        : 12:58:31;06
    encoder         : Lavf58.22.100
    Stream #0:0: Video: h264 (libx264) (avc1 / 0x31637661), yuv420p(progressive), 960x540 [SAR 1:1 DAR 16:9], q=-1--1, 0.03 fps, 30k tbn, 29.97 tbc (default)
    Metadata:
      encoder         : Lavc58.39.100 libx264
    Side data:
      cpb: bitrate max/min/avg: 0/0/0 buffer size: 0 vbv_delay: -1
    Stream #0:1: Audio: aac (LC) (mp4a / 0x6134706D), 48000 Hz, stereo, fltp, 128 kb/s (default)
    Metadata:
      encoder         : Lavc58.39.100 aac
frame=    1 fps=0.0 q=0.0 size=       0kB time=00:00:00.00 bitrate=N/A speed=   0x    frame=   60 fps= 42 q=30.0 size=       0kB time=00:00:01.94 bitrate=   0.2kbits/s speed=1.37x    frame=  124 fps= 64 q=30.0 size=     256kB time=00:00:04.07 bitrate= 514.8kbits/s speed=2.12x    frame=  179 fps= 73 q=30.0 size=     512kB time=00:00:05.90 bitrate= 709.8kbits/s speed=2.42x    frame=  237 fps= 81 q=27.0 size=     768kB time=00:00:07.85 bitrate= 801.4kbits/s speed=2.67x    frame=  286 fps= 83 q=30.0 size=    1024kB time=00:00:09.49 bitrate= 883.7kbits/s speed=2.74x    frame=  339 fps= 86 q=30.0 size=    1280kB time=00:00:11.26 bitrate= 930.9kbits/s speed=2.84x    frame=  402 fps= 90 q=30.0 size=    1536kB time=00:00:13.35 bitrate= 942.2kbits/s speed=2.99x    frame=  468 fps= 94 q=30.0 size=    1536kB time=00:00:15.55 bitrate= 809.1kbits/s speed=3.13x    frame=  523 fps= 96 q=30.0 size=    1792kB time=00:00:17.40 bitrate= 843.3kbits/s speed=3.18x    frame=  582 fps= 97 q=30.0 size=    1792kB time=00:00:19.37 bitrate= 757.9kbits/s speed=3.24x    frame=  638 fps= 99 q=30.0 size=    2048kB time=00:00:21.22 bitrate= 790.4kbits/s speed=3.28x    frame=  688 fps= 99 q=30.0 size=    2304kB time=00:00:22.91 bitrate= 823.8kbits/s speed=3.28x    frame=  725 fps= 97 q=30.0 size=    2304kB time=00:00:24.12 bitrate= 782.3kbits/s speed=3.22x    frame=  768 fps= 96 q=27.0 size=    2560kB time=00:00:25.57 bitrate= 819.9kbits/s speed= 3.2x    frame=  815 fps= 96 q=30.0 size=    2560kB time=00:00:27.13 bitrate= 772.8kbits/s speed=3.19x    frame=  867 fps= 96 q=30.0 size=    2816kB time=00:00:28.88 bitrate= 798.6kbits/s speed=3.21x    frame=  910 fps= 96 q=30.0 size=    3072kB time=00:00:30.31 bitrate= 830.2kbits/s speed=3.19x    frame=  964 fps= 96 q=30.0 size=    3072kB time=00:00:32.10 bitrate= 783.8kbits/s speed=3.21x    frame= 1021 fps= 97 q=30.0 size=    3328kB time=00:00:34.00 bitrate= 801.7kbits/s speed=3.24x    frame= 1079 fps= 98 q=30.0 size=    3584kB time=00:00:35.94 bitrate= 816.8kbits/s speed=3.27x    frame= 1135 fps= 99 q=30.0 size=    3840kB time=00:00:37.82 bitrate= 831.7kbits/s speed=3.28x    frame= 1192 fps= 99 q=30.0 size=    4096kB time=00:00:39.72 bitrate= 844.7kbits/s speed= 3.3x    frame= 1246 fps= 99 q=30.0 size=    4352kB time=00:00:41.51 bitrate= 858.8kbits/s speed=3.32x    frame= 1301 fps=100 q=30.0 size=    4352kB time=00:00:43.34 bitrate= 822.4kbits/s speed=3.33x    frame= 1348 fps=100 q=30.0 size=    4608kB time=00:00:44.92 bitrate= 840.2kbits/s speed=3.32x    frame= 1401 fps=100 q=30.0 size=    4864kB time=00:00:46.69 bitrate= 853.3kbits/s speed=3.33x    frame= 1457 fps=100 q=30.0 size=    5120kB time=00:00:48.55 bitrate= 863.8kbits/s speed=3.34x    frame= 1515 fps=101 q=30.0 size=    5376kB time=00:00:50.49 bitrate= 872.2kbits/s speed=3.36x    frame= 1571 fps=101 q=30.0 size=    5632kB time=00:00:52.37 bitrate= 880.9kbits/s speed=3.37x    frame= 1630 fps=102 q=30.0 size=    5888kB time=00:00:54.33 bitrate= 887.7kbits/s speed=3.39x    frame= 1684 fps=102 q=30.0 size=    5888kB time=00:00:56.12 bitrate= 859.4kbits/s speed=3.39x    frame= 1733 fps=102 q=30.0 size=    6144kB time=00:00:57.77 bitrate= 871.2kbits/s speed=3.39x    frame= 1777 fps=101 q=30.0 size=    6400kB time=00:00:59.24 bitrate= 885.0kbits/s speed=3.37x    frame= 1828 fps=101 q=30.0 size=    6400kB time=00:01:00.94 bitrate= 860.2kbits/s speed=3.37x    frame= 1849 fps=101 q=-1.0 Lsize=    6806kB time=00:01:01.69 bitrate= 903.6kbits/s speed=3.36x    
video:5771kB audio:967kB subtitle:0kB other streams:0kB global headers:0kB muxing overhead: 1.007440%
[libx264 @ 0000000000489f00] frame I:69    Avg QP:21.83  size: 33583
[libx264 @ 0000000000489f00] frame P:496   Avg QP:25.59  size:  4635
[libx264 @ 0000000000489f00] frame B:1284  Avg QP:27.51  size:  1006
[libx264 @ 0000000000489f00] consecutive B-frames:  6.8%  1.5%  1.3% 90.4%
[libx264 @ 0000000000489f00] mb I  I16..4: 34.4% 31.5% 34.1%
[libx264 @ 0000000000489f00] mb P  I16..4:  6.7%  5.0%  0.8%  P16..4: 16.6%  8.1%  3.6%  0.0%  0.0%    skip:59.2%
[libx264 @ 0000000000489f00] mb B  I16..4:  0.8%  0.4%  0.0%  B16..8:  7.8%  2.6%  0.2%  direct: 2.5%  skip:85.6%  L0:38.1% L1:45.1% BI:16.8%
[libx264 @ 0000000000489f00] 8x8 transform intra:35.1% inter:21.0%
[libx264 @ 0000000000489f00] coded y,uvDC,uvAC intra: 43.8% 54.4% 21.6% inter: 2.7% 3.2% 0.2%
[libx264 @ 0000000000489f00] i16 v,h,dc,p: 53% 22% 17%  8%
[libx264 @ 0000000000489f00] i8 v,h,dc,ddl,ddr,vr,hd,vl,hu: 31% 17% 23%  4%  5%  6%  5%  5%  5%
[libx264 @ 0000000000489f00] i4 v,h,dc,ddl,ddr,vr,hd,vl,hu: 27% 24% 13%  5%  6%  6%  6%  6%  6%
[libx264 @ 0000000000489f00] i8c dc,h,v,p: 46% 20% 28%  6%
[libx264 @ 0000000000489f00] Weighted P-Frames: Y:0.4% UV:0.2%
[libx264 @ 0000000000489f00] kb/s:766.18
[aac @ 000000000048acc0] Qavg: 228.603
